<svg id="VectorShape" xmlns="http://www.w3.org/2000/svg" viewBox="0 0 1090 464">
  <metadata><?xpacket begin="﻿" id="W5M0MpCehiHzreSzNTczkc9d"?>
<x:xmpmeta xmlns:x="adobe:ns:meta/" x:xmptk="Adobe XMP Core 5.6-c142 79.160924, 2017/07/13-01:06:39        ">
   <rdf:RDF xmlns:rdf="http://www.w3.org/1999/02/22-rdf-syntax-ns#">
      <rdf:Description rdf:about=""/>
   </rdf:RDF>
</x:xmpmeta>
                                                                                                    
                                                                                                    
                                                                                                    
                                                                                                    
                                                                                                    
                                                                                                    
                                                                                                    
                                                                                                    
                                                                                                    
                                                                                                    
                                                                                                    
                                                                                                    
                                                                                                    
                                                                                                    
                                                                                                    
                                                                                                    
                                                                                                    
                                                                                                    
                                                                                                    
                                                                                                    
                           
<?xpacket end="w"?></metadata>
<defs>
    <style>
      .cls-1, .cls-2 {
        fill: #fff;
        fill-rule: evenodd;
      }

      .cls-2 {
        fill-opacity: 0.17;
      }
    </style>
  </defs>
  <path id="Forma_4" data-name="Forma 4" class="cls-1" d="M105,254s-22.755,34.121-68.247,73.756C26.333,377.55,14,421,14,421L1,417s-8-27,19-97c15-34,19-106,19-106s0-1,11-8c1.652,12.392,1.082,28.842-.856,47.137C63.084,225.871,92.218,175.916,115,184,146,195,105,254,105,254Zm5-54c-33.2,24.777-60,89-60,89S115.11,228.133,110,200Z"/>
  <path id="Forma_4_copia" data-name="Forma 4 copia" class="cls-1" d="M242.507,326.409C234.354,374.6,220,421,220,421s-13-.5-14-5-15-28,12-98c10.618-24.069,18.225-41.61,21.766-49.812L240,267s0.42-.762,1.195-2.126L242,263s-0.123.371-.289,0.967C250.738,248.186,293.3,176.507,317,185,360.608,208,280.6,294.577,242.507,326.409ZM312,201c-33.2,24.777-64,97-64,97S327.61,224.133,312,201Z"/>
  <path id="Forma_6" data-name="Forma 6" class="cls-1" d="M99,317c-3.648,51.984,56.739.008,67.4-9.543-8.946,27.484-29.465,51.852-59.11,52.041C80.732,359.227,74.248,330.357,88,297c12.35-29.955,30.324-50.5,56-52a24.529,24.529,0,0,1,16.611,6.064c-0.2-.02-0.4-0.047-0.611-0.064C171.5,275.5,133.5,300,99,317Zm6-19s36-21,40-36C127.5,255.5,105,298,105,298Z"/>
  <path id="Forma_6_copia_2" data-name="Forma 6 copia 2" class="cls-1" d="M670,317c-3.648,51.984,56.739.008,67.4-9.543-8.946,27.484-29.465,51.852-59.11,52.041-26.554-.271-33.039-29.141-19.286-62.5,12.35-29.955,30.324-50.5,56-52a24.529,24.529,0,0,1,16.611,6.064c-0.205-.02-0.4-0.047-0.611-0.064C742.5,275.5,704.5,300,670,317Zm6-19s36-21,40-36C698.5,255.5,676,298,676,298Z"/>
  <path id="Forma_6_copia" data-name="Forma 6 copia" class="cls-1" d="M297.825,317c-9.55,51.984,56.738.008,68.48-9.543-12.066,27.484-35.352,51.852-65.019,52.041-26.523-.271-29.73-29.141-12.19-62.5,15.751-29.955,36.057-50.5,61.9-52,6.454,0,11.893,2.106,15.922,6.064-0.2-.02-0.4-0.047-0.6-0.064C375.037,275.5,334.255,300,297.825,317Zm8.158-19s38.384-21,44.087-36C333.308,255.5,305.983,298,305.983,298Z"/>
  <path id="Forma_7" data-name="Forma 7" class="cls-1" d="M143,356l15,3.5s5.59-20.438,11.764-43.064C174.02,300.836,188,277.073,201,269c17.1-8.218,42.48-1.482,42-3-0.568-1.8,8.98-13.263,5-14-61.957-11.472-62,5-62,5l-13-4Z"/>
  <path id="Rectángulo_1" data-name="Rectángulo 1" class="cls-1" d="M351,245c51.5-8.5,94-5,94-5l-6,16s-50-2.5-88,5C341,253.5,352.5,251.5,351,245Z"/>
  <path id="Rectángulo_1_copia" data-name="Rectángulo 1 copia" class="cls-1" d="M883.171,213.846C934.577,203.67,984,207.86,984,207.86l-5.989,19.154S921.1,224.022,883.171,233C871.193,233.6,870.693,215.642,883.171,213.846Z"/>
  <path id="Forma_14" data-name="Forma 14" class="cls-1" d="M966,226s-7.5,105,31,114.5c14.5,0,6-15.5,6-15.5s-16,9-19-117C973.5,209.5,966,226,966,226Z"/>
  <path id="Rectángulo_2" data-name="Rectángulo 2" class="cls-1" d="M597.354,147l19.324-8.782-56.355,213L541,360Z"/>
  <path id="Rectángulo_2_copia" data-name="Rectángulo 2 copia" class="cls-1" d="M870.354,147a161.744,161.744,0,0,1,23.324-8.782s-62.855,107.282-69.354,213C816.823,354.718,805,360,805,360S801.354,265.5,870.354,147Z"/>
  <path id="Forma_13" data-name="Forma 13" class="cls-1" d="M887,245.5L867,252s-32.44,74.362-20,96c1.778,3.092,12.072,11.411,16,12,14.94-.5,24.5-9.5,32-19.5,16.971-22.627-3-20.5-3-20.5s-10.907,13.1-25,20C855.007,325.279,887,245.5,887,245.5Z"/>
  <path id="Forma_13_copia" data-name="Forma 13 copia" class="cls-1" d="M967,139.5L947,146s-81.766,167.294-50,200c9.847,13.5,17.072,13.411,21,14,14.94-.5,28.5-15.5,38-29-2.529-4.627-6-11-6-11s-9.407,10.5-32,21C906.007,326.279,967,139.5,967,139.5Z"/>
  <path id="Forma_11" data-name="Forma 11" class="cls-1" d="M626,155l6-21s26-17.5,41-6c38.5,46.5-51,133-76,141,6-23.5,6-23,6-23s85.079-81.739,56-103C643.415,140.307,626,155,626,155Z"/>
  <path id="Forma_12" data-name="Forma 12" class="cls-1" d="M618,254s7-8.5,14-8.5S615.3,352.69,627,360c17-10,0-.5,17-10-13-13.5,23-133.5,0-122S618,254,618,254Z"/>
  <path id="Forma_8" data-name="Forma 8" class="cls-1" d="M416,184l-14,5s-88,165-31,170.5c17,0,44-34.5,44-34.5l7-28s-40.5,49-51,42C357,338.5,416,184,416,184Z"/>
  <path id="Forma_9" data-name="Forma 9" class="cls-1" d="M445,240s-28.5,100.5-11,100c30.5-12,51-89,51-89l16-5.5s-25,114-72,114c-41.5-13,3-106.5,3-106.5Z"/>
  <path id="Forma_10" data-name="Forma 10" class="cls-1" d="M555,246c3.863,11.021-6.489,41.955-12,59a107.75,107.75,0,0,1-7.377,17.521c-0.58,19.863,3.351,30.409,3.375,30.473-0.059.016-.839,0.494-9,6.506-5.912-2.6-9.5-7.787-11.432-14.543C507.29,355.3,494.911,360,485,360c-18.544,0-25.068-25.011-18-56,7.284-31.938,40.485-58.277,60-58a17.212,17.212,0,0,1,10.578,3.626L555,245.5c-0.059.134-.111,0.263-0.17,0.4A0.154,0.154,0,0,1,555,246Zm-33,15c-12.382,0-30.287,17.477-38,39-7.085,19.772-4.434,37.391,3,41,5.207,2.528,18.38-2.041,29.932-16.976,1.3-21.391,9.21-46.841,14.427-61.642C528.631,261.008,525.166,261,522,261Zm17,92,0-.006C539.008,352.992,539,353,539,353Z"/>
  <path id="Forma_10_copia" data-name="Forma 10 copia" class="cls-1" d="M814,245c3.863,11.021-6.489,41.955-12,59a107.75,107.75,0,0,1-7.377,17.521c-0.58,19.863,3.351,30.409,3.375,30.473-0.059.016-.839,0.494-9,6.506-5.912-2.6-9.5-7.787-11.432-14.543C766.29,354.3,753.911,359,744,359c-18.544,0-25.068-25.011-18-56,7.284-31.938,40.485-58.277,60-58a17.212,17.212,0,0,1,10.578,3.626L814,244.5c-0.059.134-.111,0.263-0.17,0.4A0.154,0.154,0,0,1,814,245Zm-33,15c-12.382,0-30.287,17.477-38,39-7.085,19.772-4.434,37.391,3,41,5.207,2.528,18.38-2.041,29.932-16.976,1.3-21.391,9.21-46.841,14.427-61.642C787.631,260.008,784.166,260,781,260Zm17,92,0-.006C798.007,351.992,798,352,798,352Z"/>
  <path id="Rectángulo_4" data-name="Rectángulo 4" class="cls-1" d="M872,450c62.565,0,128.8-106.04,172-224,0.64-1.754,1.29-3.655,1.94-5.666l26.77-9.2Q1069.215,223.878,1065,237c-42.12,130.891-125.352,227.035-199.76,227-38.049-.018-58.267-32.962-60.368-84.714l18.58-9.87C822.668,417.889,837.608,450,872,450Z"/>
  <path id="Rectángulo_3" data-name="Rectángulo 3" class="cls-2" d="M1050.52,204.027C1066.52,139.711,1077.13,14,1021,16c-38.364,1.368-80.251,42.806-116.682,104.663l-24.555,8.724C923.712,52.857,978.174,0,1027,0c60.88,0,76.85,84.048,49.94,194.812Z"/>
</svg>
